<svg xmlns="http://www.w3.org/2000/svg" width="42" height="42" viewBox="0 0 42 42">
    <defs>
        <linearGradient id="prefix__a" x1="0%" x2="91.442%" y1="0%" y2="98.645%">
            <stop offset="0%" stop-color="#1A0293"/>
            <stop offset="100%" stop-color="#A9E5FF"/>
        </linearGradient>
    </defs>
    <g fill="none" fill-rule="evenodd">
        <path fill="url(#prefix__a)" fill-rule="nonzero" d="M11.516 1.355c-5.612 0-10.161 4.55-10.161 10.161v18.968c0 5.612 4.55 10.161 10.161 10.161h18.968c5.612 0 10.161-4.55 10.161-10.161V11.516c0-5.612-4.55-10.161-10.161-10.161H11.516zm0-1.355h18.968C36.844 0 42 5.156 42 11.516v18.968C42 36.844 36.844 42 30.484 42H11.516C5.156 42 0 36.844 0 30.484V11.516C0 5.156 5.156 0 11.516 0z"/>
        <path fill="#FFF" d="M30.675 28.431c3.422-4.225 3.636-11.488-1.438-16.119-4.884-4.457-11.68-3.686-15.322-.64l16.76 16.76m-18.418-15.31c-2.69 3.183-3.75 6.833-2.704 10.901 1.231 4.793 4.377 7.812 9.213 8.866 3.922.855 7.418-.225 10.448-2.81L12.257 13.122m22.969 8.047c0 7.748-6.315 14.06-14.063 14.057-7.747-.004-14.057-6.322-14.05-14.07.007-7.736 6.312-14.04 14.05-14.043 7.747-.004 14.063 6.308 14.063 14.056z"/>
        <path fill="#FFF" d="M12.147 23.968h-.97v-4.323h2.787v.915H12.14v.914h1.603v.878h-1.597v1.616zm4.78 0l-.774-1.61h-.342v1.61h-.963v-4.323h1.713c.419 0 .757.128 1.015.384.259.256.388.58.388.97 0 .292-.076.545-.226.759-.15.213-.36.367-.628.46l.878 1.75h-1.06zm-1.116-2.439h.567c.196 0 .346-.048.452-.143.105-.096.158-.223.158-.381 0-.163-.053-.29-.158-.384-.106-.094-.256-.14-.452-.14h-.567v1.048zm5.964 2.439l-.311-.878h-1.67l-.312.878H18.47l1.628-4.323h1.116l1.61 4.323h-1.05zm-1.134-3.25l-.53 1.494h1.048l-.518-1.494zm5.676 2.914c-.32.289-.73.433-1.225.433-.496 0-.906-.145-1.229-.436-.323-.29-.484-.698-.484-1.222v-2.762h.963v2.683c0 .256.066.45.198.585.132.134.316.201.552.201.236 0 .42-.067.552-.201.132-.134.198-.33.198-.585v-2.683h.963v2.762c0 .524-.163.933-.488 1.225zm2.561-.573h.561c.354 0 .643-.105.87-.317.225-.211.337-.522.337-.932 0-.415-.112-.728-.338-.94-.226-.21-.515-.316-.869-.316h-.56v2.505zm.598.909h-1.56v-4.323h1.566c.654 0 1.18.195 1.576.585.396.39.594.917.594 1.58 0 .662-.198 1.187-.594 1.576-.396.388-.924.582-1.582.582z"/>
    </g>
</svg>
