<svg xmlns="http://www.w3.org/2000/svg" xmlns:xlink="http://www.w3.org/1999/xlink" width="96" height="96" viewBox="0 0 96 96">
    <defs>
        <path id="prefix__b" d="M0.018 0.006L26.537 0.006 26.537 8.57 0.018 8.57z"/>
        <path id="prefix__d" d="M0 0.002L8.61 0.002 8.61 15.647 0 15.647z"/>
        <linearGradient id="prefix__a" x1="0%" x2="91.442%" y1="0%" y2="98.645%">
            <stop offset="0%" stop-color="#1A0293"/>
            <stop offset="100%" stop-color="#A9E5FF"/>
        </linearGradient>
    </defs>
    <g fill="none" fill-rule="evenodd">
        <path fill="url(#prefix__a)" fill-rule="nonzero" d="M26.323 3.097c-12.828 0-23.226 10.398-23.226 23.226v43.354c0 12.828 10.398 23.226 23.226 23.226h43.354c12.828 0 23.226-10.398 23.226-23.226V26.323c0-12.828-10.398-23.226-23.226-23.226H26.323zm0-3.097h43.354C84.215 0 96 11.785 96 26.323v43.354C96 84.215 84.215 96 69.677 96H26.323C11.785 96 0 84.215 0 69.677V26.323C0 11.785 11.785 0 26.323 0z"/>
        <g>
            <g transform="translate(15 24) translate(42)">
                <rect width="16.665" height="16.769" x="1" y="1" stroke="#FFF" stroke-width="2" rx="5"/>
                <path fill="#FFF" d="M10.487 8.631h1.849l-.25 1.879h-1.599v4.505H8.401v-4.514H6.844V8.666H8.33c.183-1.175-.146-2.463 1.053-3.26.906-.602 1.942-.35 3.051-.339 0 .46.03.897-.018 1.326-.015.129-.228.29-.384.339-.191.06-.42.022-.631.016-.631-.017-.983.21-.919.862.03.306.005.618.005 1.021"/>
            </g>
            <g transform="translate(15 24) translate(0 4)">
                <g fill="#FFF">
                    <rect width="35.774" height="11.498" rx="5.749"/>
                    <path d="M8.781 11.144L11.952 14.859 15.123 11.144z"/>
                </g>
                <ellipse cx="13.61" cy="6.647" fill="#131313" rx="1.167" ry="1.173"/>
                <ellipse cx="16.721" cy="6.647" fill="#131313" rx="1.167" ry="1.173"/>
                <ellipse cx="20.609" cy="6.647" fill="#131313" rx="1.167" ry="1.173"/>
            </g>
            <g transform="translate(15 24) translate(6 24)">
                <ellipse cx="12.43" cy="12.5" stroke="#FFF" stroke-width="2" rx="12.43" ry="12.5"/>
                <path fill="#FFF" d="M16.388 7.877L14.7 9.657c-.117-.097-.23-.198-.35-.288-.734-.55-1.556-.747-2.442-.604-1.385.225-2.302 1.074-2.843 2.406-.312.766-.357 1.557-.124 2.339.428 1.436 1.325 2.413 2.751 2.734 1.034.232 2.024.036 2.891-.643.557-.437.89-1.029 1.04-1.737.004-.015-.002-.032-.004-.07h-.163c-.97 0-1.94-.003-2.91.003-.138.001-.175-.041-.173-.182.006-.708.005-1.416.002-2.125 0-.117.026-.154.147-.154 1.734.005 3.468.003 5.201.003.042 0 .083.004.124-.001.11-.014.159.017.179.148.1.655.106 1.31.046 1.968-.082.91-.327 1.769-.773 2.556-.783 1.38-1.944 2.216-3.425 2.585-.734.182-1.478.217-2.223.125-.995-.125-1.908-.499-2.724-1.113-.76-.572-1.378-1.281-1.798-2.159-.369-.77-.611-1.582-.669-2.453-.07-1.056.103-2.058.508-3.026.79-1.892 2.172-3.064 4.064-3.528 1.96-.48 3.737-.023 5.27 1.377.023.021.052.035.087.059"/>
            </g>
            <g>
                <path fill="#FFF" d="M14.08 11.164L.613 0H27.55L14.08 11.164" transform="translate(15 24) translate(37 27)"/>
                <g transform="translate(15 24) translate(37 27) translate(1.224 9.304)">
                    <mask id="prefix__c" fill="#fff">
                        <use xlink:href="#prefix__b"/>
                    </mask>
                    <path fill="#FFF" d="M.018 8.57L8.916.006c1.107.875 2.376 1.815 3.56 2.843.652.565 1.094.486 1.704-.037 1.155-.99 2.376-1.91 3.503-2.805 2.969 2.87 5.912 5.717 8.854 8.563H.018z" mask="url(#prefix__c)"/>
                </g>
                <path fill="#FFF" d="M20.204 7.632L28.774.62v15.506l-8.57-8.494" transform="translate(15 24) translate(37 27)"/>
                <g transform="translate(15 24) translate(37 27) translate(0 .62)">
                    <mask id="prefix__e" fill="#fff">
                        <use xlink:href="#prefix__d"/>
                    </mask>
                    <path fill="#FFF" d="M0 .002l8.61 7.072L0 15.647V.002z" mask="url(#prefix__e)"/>
                </g>
            </g>
        </g>
    </g>
</svg>
