<?xml version="1.0" encoding="utf-8"?>
<!-- Svg Vector Icons : http://www.onlinewebfonts.com/icon -->
<!DOCTYPE svg PUBLIC "-//W3C//DTD SVG 1.1//EN" "http://www.w3.org/Graphics/SVG/1.1/DTD/svg11.dtd">
<svg version="1.1" xmlns="http://www.w3.org/2000/svg" xmlns:xlink="http://www.w3.org/1999/xlink" x="0px" y="0px" viewBox="0 0 1000 1000" enable-background="new 0 0 1000 1000" xml:space="preserve">
<metadata> Svg Vector Icons : http://www.onlinewebfonts.com/icon </metadata>
<g><g transform="translate(0.000000,384.000000) scale(0.100000,-0.100000)"><path d="M1170,2484.4c-128.2-38.3-266.1-139.7-336.9-245c-128.2-187.6-120.6-17.2-120.6-2915.1v-2628h153.1h153.1l3.8,2668.2c5.7,2666.3,5.7,2670.1,45.9,2723.7c21.1,28.7,68.9,68.9,105.3,86.1c61.2,32.5,252.7,34.4,3171.6,34.4H7450v153.1V2515l-3095-1.9C1728.9,2513.1,1244.6,2507.3,1170,2484.4z"/><path d="M8062.5,2361.9v-153.1h348.4h350.3L7340.9,788.5L5918.7-633.6L5306.2-21.1l-612.5,612.5L3340.5-761.9L1985.4-2117l111-109.1l109.1-111L3449.6-1093L4693.7,151.1l612.5-612.5l612.5-612.5L7450,457.4l1531.2,1531.2v-350.3V1290h153.1h153.1v612.5V2515H8675h-612.5V2361.9z"/><path d="M1325-547.5v-2450h3675h3675V-1160V677.5h-153.1h-153.1v-1684.4v-1684.4H5000H1631.2v2143.7v2143.7h2909.4H7450v153.1v153.1H4387.5H1325V-547.5z"/><path d="M8981.2-1313.1v-1990.6h153.1h153.1v1990.6V677.5h-153.1h-153.1V-1313.1z"/><path d="M7296.9-1313.1V-2385H7450h153.1v1071.9v1071.9H7450h-153.1V-1313.1z"/><path d="M4234.4-1619.4V-2385h153.1h153.1v765.6v765.6h-153.1h-153.1V-1619.4z"/><path d="M4846.9-1619.4V-2385H5000h153.1v765.6v765.6H5000h-153.1V-1619.4z"/><path d="M6684.4-1619.4V-2385h153.1h153.1v765.6v765.6h-153.1h-153.1V-1619.4z"/><path d="M3621.9-1925.6V-2385H3775h153.1v459.4v459.4H3775h-153.1V-1925.6z"/><path d="M5459.4-1925.6V-2385h153.1h153.1v459.4v459.4h-153.1h-153.1V-1925.6z"/><path d="M6071.9-1925.6V-2385H6225h153.1v459.4v459.4H6225h-153.1V-1925.6z"/><path d="M3009.4-2231.9V-2385h153.1h153.1v153.1v153.1h-153.1h-153.1V-2231.9z"/><path d="M100-3874.1v-262.2l350.3-350.3L798.6-4835H5000h4201.4l350.3,350.3l348.4,348.4v264.1v262.2H7951.5H6004.9l-153.1-153.1l-153.1-153.1H5000h-698.6l-153.1,153.1L3995.1-3610H2048.5H100V-3874.1z M4014.3-4069.4l153.1-153.1H5000h832.6l153.1,153.1l153.1,153.1h1726.5h1728.4v-42.1c0-30.6-82.3-126.3-262.2-306.2l-264.1-264.1H5000H932.6l-262.2,262.2c-183.7,183.7-264.1,277.5-264.1,306.2v44h1728.4h1726.5L4014.3-4069.4z"/></g></g>
</svg>